#!OML:ASF X:\für Bonn\!DataBase\2005_08_12_Daniel\c3d\Daniel.ASF
:FULLY-SPECIFIED
:DEGREES
76
root 2.1113 17.6064 18.299 -726.308 13.8125 -1.98407
lowerback 7.64637 2.52394 6.63349
upperback 0.497253 3.7464 -6.00298
thorax -2.9356 1.77458 -10.5341
lowerneck -0.074082 -5.96645 0.0728055
upperneck 7.97214 -8.32873 4.7574
head 2.77587 -4.00257 1.30181
rclavicle 1.75179e-015 3.81667e-014
rhumerus 53.5458 1.87721 -38.4939
rradius 23.0569
rwrist 7.10964
rhand 6.96354 13.6505
rfingers 7.12502
rthumb 32.241 -13.5068
lclavicle 1.75179e-015 3.81667e-014
lhumerus -27.3026 32.6999 67.3841
lradius 21.1653
lwrist -29.5729
lhand -10.762 -5.81455
lfingers 7.12502
lthumb 15.2498 23.6033
rfemur 5.74794 20.3996 24.8108
rtibia 17.3896
rfoot -23.4674 -25.9151
rtoes -11.9409
lfemur -2.12759 -15.2767 -17.1082
ltibia 31.5286
lfoot -22.673 4.11696
ltoes -12.8346
77
root 2.11187 17.608 18.3033 -726.244 14.0816 -1.96765
lowerback 7.6573 2.54035 6.56559
upperback 0.47567 3.7621 -6.03533
thorax -2.96311 1.78109 -10.5329
lowerneck -0.0978748 -6.00724 0.0817664
upperneck 7.90882 -8.38515 4.81276
head 2.76312 -4.02976 1.31642
rclavicle -8.44835e-015 -2.38542e-014
rhumerus 53.4318 2.07057 -37.6791
rradius 22.9301
rwrist 6.02444
rhand 8.4304 13.2074
rfingers 7.12502
rthumb 33.6361 -13.6564
lclavicle -8.44835e-015 -2.38542e-014
lhumerus -27.196 32.6605 67.6331
lradius 21.3296
lwrist -29.2789
lhand -10.7158 -5.97104
lfingers 7.12502
lthumb 15.2942 23.4435
rfemur 5.75432 20.3702 24.797
rtibia 17.3636
rfoot -23.6287 -26.0993
rtoes -11.8694
lfemur -2.25308 -15.3777 -17.1081
ltibia 31.5403
lfoot -22.6283 3.9848
ltoes -12.9282
78
root 2.11227 17.6091 18.3072 -726.187 14.3708 -1.95599
lowerback 7.67804 2.54314 6.51187
upperback 0.448017 3.76102 -6.06757
thorax -3.00547 1.77791 -10.5399
lowerneck -0.0985688 -6.04434 0.0640627
upperneck 7.85859 -8.4365 4.87338
head 2.75214 -4.05512 1.33794
rclavicle -2.02698e-014 6.52014e-014
rhumerus 53.2868 2.23026 -36.9672
rradius 22.8319
rwrist 5.03331
rhand 9.82585 12.8788
rfingers 7.12502
rthumb 34.9611 -13.6864
lclavicle -2.02698e-014 6.52014e-014
lhumerus -27.1354 32.6133 67.8501
lradius 21.4811
lwrist -28.9819
lhand -10.6489 -6.17158
lfingers 7.12502
lthumb 15.3587 23.238
rfemur 5.77323 20.3526 24.7978
rtibia 17.3327
rfoot -23.7942 -26.3151
rtoes -11.7376
lfemur -2.38337 -15.4991 -17.1004
ltibia 31.5513
lfoot -22.5899 3.83494
ltoes -12.9373
79
root 2.1133 17.6099 18.3119 -726.145 14.6527 -1.94171
lowerback 7.67865 2.54686 6.47536
upperback 0.442679 3.76219 -6.10196
thorax -3.01119 1.77859 -10.5571
lowerneck -0.10339 -6.07353 -0.0219049
upperneck 7.81894 -8.48046 4.99123
head 2.75208 -4.07683 1.38939
rclavicle 6.40459e-015 -2.06736e-014
rhumerus 53.1397 2.20448 -36.6495
rradius 22.6978
rwrist 4.5548
rhand 11.1724 12.726
rfingers 7.12502
rthumb 36.2375 -13.5318
lclavicle 6.40459e-015 -2.06736e-014
lhumerus -27.0685 32.5792 68.0616
lradius 21.6169
lwrist -28.6869
lhand -10.5888 -6.37153
lfingers 7.12502
lthumb 15.4166 23.0336
rfemur 5.81518 20.3156 24.7982
rtibia 17.3049
rfoot -23.9616 -26.5035
rtoes -11.6654
lfemur -2.48301 -15.6128 -17.1076
ltibia 31.5616
lfoot -22.5497 3.69991
ltoes -12.9929
80
root 2.1141 17.6107 18.3181 -726.115 14.9528 -1.92919
lowerback 7.68657 2.54201 6.44728
upperback 0.424927 3.75258 -6.14062
thorax -3.03574 1.7722 -10.5845
lowerneck -0.00243098 -6.09878 -0.100843
upperneck 7.70096 -8.51298 5.1069
head 2.70565 -4.09618 1.44351
rclavicle 1.11444e-013 4.77083e-015
rhumerus 52.9814 2.06849 -36.6517
rradius 22.5139
rwrist 4.45134
rhand 12.4776 12.6831
rfingers 7.12502
rthumb 37.4723 -13.2578
lclavicle 1.11444e-013 4.77083e-015
lhumerus -27.0645 32.5624 68.2243
lradius 21.7369
lwrist -28.4682
lhand -10.5389 -6.53844
lfingers 7.12502
lthumb 15.4646 22.863
rfemur 5.87649 20.2868 24.8163
rtibia 17.2728
rfoot -24.155 -26.7293
rtoes -11.596
lfemur -2.56978 -15.7438 -17.112
ltibia 31.571
lfoot -22.5038 3.54673
ltoes -12.9506
81
root 2.11508 17.6108 18.3249 -726.082 15.2539 -1.91892
lowerback 7.66111 2.53352 6.42405
upperback 0.426785 3.73773 -6.16955
thorax -3.02241 1.76598 -10.5999
lowerneck 0.0348071 -6.12125 -0.221668
upperneck 7.63727 -8.54486 5.22166
head 2.69134 -4.11424 1.50192
rclavicle -4.53105e-014 -3.18055e-015
rhumerus 52.8146 1.86173 -36.7873
rradius 22.3408
rwrist 4.61759
rhand 13.762 12.741
rfingers 7.12502
rthumb 38.6851 -12.8685
lclavicle -4.53105e-014 -3.18055e-015
lhumerus -27.0448 32.6146 68.3805
lradius 21.8236
lwrist -28.2912
lhand -10.4481 -6.69224
lfingers 7.12502
lthumb 15.5521 22.7024
rfemur 5.93856 20.2547 24.8332
rtibia 17.2393
rfoot -24.3408 -26.9271
rtoes -11.442
lfemur -2.65744 -15.8636 -17.1141
ltibia 31.58
lfoot -22.4686 3.38475
ltoes -13.0517
